<svg xmlns="http://www.w3.org/2000/svg" viewBox="0 0 481.3 197.59"><title>Arduino_DAY2020_Logotype</title><g id="LOGO"><path d="M360.62,181.69,368,158.06h6.57l7.53,23.63h-6.22l-1.31-4.83h-6.79l-1.2,4.83Zm10.47-18-2.15,8.65h4.47Z" transform="translate(-42.28 -28.62)" fill="#00979d"/><path d="M385.88,158.06h9.53c6.54,0,9,3.35,9,7.89,0,3.24-1.31,5.71-3.89,7.09l4.62,8.65h-6.91l-3.56-7.49h-2.94v7.49h-5.86ZM398.21,166c0-2.11-.77-3.16-3.49-3.16h-3v6.68h3.09C396.86,169.51,398.21,168.61,398.21,166Z" transform="translate(-42.28 -28.62)" fill="#00979d"/><path d="M409.15,158.06h7.74c8.83,0,11.78,4.19,11.78,11.6,0,5.6-1.71,12-11.74,12h-7.78Zm5.85,4.77v14h2.22c4.83,0,5.2-3,5.2-7,0-4.61-.48-7.08-5.71-7.08Z" transform="translate(-42.28 -28.62)" fill="#00979d"/><path d="M446,158.06h5.63v15.53c0,7-5.34,8.46-9.52,8.46-4,0-9.19-1.34-9.19-8.5V158.06h5.85v14.4c0,3.92,1.38,4.83,3.6,4.83,2.65,0,3.63-1.2,3.63-4.8Z" transform="translate(-42.28 -28.62)" fill="#00979d"/><path d="M456.84,176.86H463v-14h-6.11v-4.84h18.1v4.84H468.8v14h6.14v4.83h-18.1Z" transform="translate(-42.28 -28.62)" fill="#00979d"/><path d="M485.3,181.69h-5.52V158.06h6.36l7.67,14.18V158.06h5.45v23.63h-5.92l-8.07-15.12Z" transform="translate(-42.28 -28.62)" fill="#00979d"/><path d="M523.18,169.88c0,6.83-2.51,12.17-10.11,12.17-6.79,0-9.92-4.1-9.92-11.92,0-7.12,2.73-12.39,9.89-12.39C519.76,157.74,523.18,160.86,523.18,169.88Zm-6.22,0c0-5.78-.47-7.38-3.92-7.38-3.13,0-3.67,1.85-3.67,7.63,0,4.76.32,7.16,3.7,7.16S517,175.33,517,169.88Z" transform="translate(-42.28 -28.62)" fill="#00979d"/><path d="M174.25,76.52l.87-1.61a75.26,75.26,0,0,0-24.77-8.33A74.38,74.38,0,0,0,140,65.84c-27.59,0-52.28,16.6-61.44,41.31l8.89,3.29c7.78-21,28.9-35.13,52.55-35.13A64.49,64.49,0,0,1,149,76c16,2.29,31.44,11,45.8,26l5.23-5A103.19,103.19,0,0,0,174.25,76.52Z" transform="translate(-42.28 -28.62)" fill="#7fcbcd"/><path d="M109.49,187.14c-23.79-11.06-39.16-34.45-39.16-59.59A64,64,0,0,1,81.1,92a67.31,67.31,0,0,1,9.42-11.21l4.37,4.56a60.34,60.34,0,0,0-8.53,10.15,57.6,57.6,0,0,0-9.72,32.08c0,23,13.61,43.68,35.51,53.86Z" transform="translate(-42.28 -28.62)" fill="#7fcbcd"/><path d="M225.37,135.31l-2.74-6.39c-.25-.49-.59-1.15-1-1.93-4.8,9.08-30,53.42-71.5,59.34-3.39.48-6.88,1.59-10.18,1.59a64.9,64.9,0,0,1-27.54-6l-3.16,5.79a72.26,72.26,0,0,0,30.7,6.74,79.61,79.61,0,0,0,11.14-.8c40-5.72,65.28-42.32,74.58-58.42Z" transform="translate(-42.28 -28.62)" fill="#7fcbcd"/><path d="M234.14,166.17a153.42,153.42,0,0,1-26.67,28.37l2.32,2.85a156.78,156.78,0,0,0,26.44-27.84c16.51,22.52,44,49.24,83.79,54.93l1-6.61c-40.7-5.81-68-34.58-84.16-59.07C236,157.64,234.14,166.17,234.14,166.17Z" transform="translate(-42.28 -28.62)" fill="#f26727"/><path d="M340.5,193.62a77.94,77.94,0,0,1-16-.62c-12.23-1.75-24.08-6.63-35.22-14.51l-3.47,4.9c11.93,8.43,24.66,13.66,37.84,15.55a85.33,85.33,0,0,0,11.89.85c1.65,0,3.29-.06,4.93-.16Z" transform="translate(-42.28 -28.62)" fill="#f1c40f"/><path d="M228.54,134l-3.17,1.36-2.74-6.39a146.85,146.85,0,0,0-22.58-32l-5.23,5a131.29,131.29,0,0,1,20.42,27.84l9.62,16.77,8.21-4.71Z" transform="translate(-42.28 -28.62)" fill="#f26727"/><path d="M335.57,188.28a72.16,72.16,0,0,1-10.26-.74c-42.81-6.11-67.85-49.57-72.44-58.22l6.62-3.51c2.63,4.95,26.83,48.6,66.88,54.32a66.31,66.31,0,0,0,9.2.66Z" transform="translate(-42.28 -28.62)" fill="#7fcbcd"/><path d="M395.22,110.86a58.09,58.09,0,0,0-15.4-24.73,62.73,62.73,0,0,0-34.73-16.72l1.21-8.49a71.12,71.12,0,0,1,39.45,19,66.58,66.58,0,0,1,17.67,28.39Z" transform="translate(-42.28 -28.62)" fill="#00979d"/><path d="M280.62,83.57l-4-4.61C291.14,66.18,307,58.49,323.67,56.1a84.6,84.6,0,0,1,11.87-.84,77,77,0,0,1,53.6,21.13l-4.24,4.43a70.94,70.94,0,0,0-49.36-19.44,78.26,78.26,0,0,0-11,.79C309.05,64.38,294.27,71.58,280.62,83.57Z" transform="translate(-42.28 -28.62)" fill="#00979d"/><path d="M249.5,143.24l-21.26-10.11,5.06-10.62c3.28-6.9,15.69-30.91,37.54-50.09l8.84-7.76,15.53,17.68-8.84,7.77c-18.95,16.63-29.83,38.33-31.82,42.51Z" transform="translate(-42.28 -28.62)" fill="#f1c40f"/><path d="M69.6,155.93A71,71,0,0,1,85.93,76,76.07,76.07,0,0,1,102.74,63.8l3.46,6.49A68.89,68.89,0,0,0,91,81.27,63.66,63.66,0,0,0,76.33,153Z" transform="translate(-42.28 -28.62)" fill="#00979d"/><path d="M94.92,85.36l-4.44-4.64A71.11,71.11,0,0,1,140,61.24a76.66,76.66,0,0,1,37.33,9.63l-3.05,5.65A70.41,70.41,0,0,0,140,67.66,64.76,64.76,0,0,0,94.92,85.36Z" transform="translate(-42.28 -28.62)" fill="#f1c40f"/><path d="M50.94,127.55H47a87.39,87.39,0,0,1,27.4-63.64l2.71,2.83A83.5,83.5,0,0,0,50.94,127.55Z" transform="translate(-42.28 -28.62)" fill="#f1c40f"/><path d="M206.14,60.51c-15.85-12.67-33.22-20.42-51.63-23a102.94,102.94,0,0,0-14.54-1A96.71,96.71,0,0,0,87,51.93l-2.85-4.38A101.85,101.85,0,0,1,140,31.19a109.05,109.05,0,0,1,15.28,1.09C174.6,35,192.81,43.17,209.4,56.43Z" transform="translate(-42.28 -28.62)" fill="#00979d"/><path d="M242.92,94.46,232.6,87.18c16.51-23.4,45-52.55,87.15-58.56l1.78,12.5C283.87,46.5,258,73.1,242.92,94.46Z" transform="translate(-42.28 -28.62)" fill="#00979d"/><path d="M254.73,96l-7.3-5.52c14.45-19.11,39.06-42.95,74.29-48a98.81,98.81,0,0,1,13.82-1,92.62,92.62,0,0,1,34.18,6.43l-3.36,8.52a83.39,83.39,0,0,0-30.82-5.8,87.87,87.87,0,0,0-12.52.9C290.87,56.12,268.14,78.23,254.73,96Z" transform="translate(-42.28 -28.62)" fill="#7fcbcd"/><path d="M240,110.87l-10.21-4.16,3-7.46.26-.41C246.28,78,275.21,42,320.72,35.48a105.52,105.52,0,0,1,14.82-1.06v11a93.86,93.86,0,0,0-13.26.95c-38.84,5.54-64.69,34.46-79.6,57.92Z" transform="translate(-42.28 -28.62)" fill="#7fcbcd"/><path d="M239.84,99.57l-5.29-6.49a153.22,153.22,0,0,0-29.23-31.55l4.9-6.12a160.64,160.64,0,0,1,30.66,33l5,6.15Z" transform="translate(-42.28 -28.62)" fill="#7fcbcd"/><path d="M402.16,62.79a95.78,95.78,0,0,0-66.62-26.37,102.9,102.9,0,0,0-14.53,1l-.74-5.18a108.91,108.91,0,0,1,15.27-1.09A101,101,0,0,1,405.78,59Z" transform="translate(-42.28 -28.62)" fill="#f26727"/><path d="M153.23,208.71l-1.9-13.35c53.36-7.62,79.95-69.77,80.21-70.4,1.18-2.84,29.7-69.85,90.74-78.56l1.91,13.34c-53.53,7.64-79.95,69.78-80.21,70.4C242.8,133,214.26,200,153.23,208.71Z" transform="translate(-42.28 -28.62)" fill="#00979d"/><path d="M97.16,195.21,103,185.14a74,74,0,0,0,48.13,9l1.65,11.52a90.57,90.57,0,0,0,32.4-11.35l-9.76-17a70,70,0,0,1-35.5,9.67,64.22,64.22,0,0,1-44.7-17.58A58.43,58.43,0,0,1,82,150.52L65.11,157.9a77.11,77.11,0,0,0,17.42,24.79l-.85.89A82.07,82.07,0,0,0,97.16,195.21Z" transform="translate(-42.28 -28.62)" fill="#00979d"/><path d="M139.94,211.72a88.83,88.83,0,0,1-61.8-24.44l3.7-3.87a83.46,83.46,0,0,0,58.1,23,91.18,91.18,0,0,0,12.83-.92c44-6.29,70.6-43.53,82.58-65.26l3-7.19,4.94,2.09-3.22,7.56c-12.42,22.59-40.19,61.47-86.58,68.1A95.73,95.73,0,0,1,139.94,211.72Z" transform="translate(-42.28 -28.62)" fill="#00979d"/><path d="M139.94,226.21a103.28,103.28,0,0,1-71.81-28.47l6.78-7.08a93.44,93.44,0,0,0,65,25.74,100.4,100.4,0,0,0,14.24-1c18.35-2.62,35.62-10.43,51.36-23.22l6.18,7.61c-17.13,13.92-36,22.44-56.15,25.31A109.67,109.67,0,0,1,139.94,226.21Z" transform="translate(-42.28 -28.62)" fill="#00979d"/><path d="M154.62,218.41l-1.22-8.49c39.54-5.65,65.69-35.06,80.69-58.77.46-.8,4.49-7.81,6-10.75l7.59,4c-1.71,3.25-6.06,10.79-6.25,11.11l-.08.15C225.43,180.91,197.43,212.3,154.62,218.41Z" transform="translate(-42.28 -28.62)" fill="#f1c40f"/><path d="M97.48,194.68c-24.62-14.29-39.31-39.39-39.31-67.13a77.63,77.63,0,0,1,.94-12l6,1a71.51,71.51,0,0,0-.86,11.06c0,25.53,13.55,48.65,36.25,61.83Z" transform="translate(-42.28 -28.62)" fill="#7fcbcd"/><path d="M68,116.93l-11.62-1.84a80,80,0,0,1,33-52.74c18.19-13,40.84-18.38,63.79-15.1a89.06,89.06,0,0,1,15.31,3.58L164.75,62a78.53,78.53,0,0,0-13.3-3.12C110.72,53.1,74,78.58,68,116.93Z" transform="translate(-42.28 -28.62)" fill="#f26727"/><path d="M66.44,199.51a99.52,99.52,0,0,1-24.16-35.84L56,158.3A85.11,85.11,0,0,0,76.6,188.89Z" transform="translate(-42.28 -28.62)" fill="#f1c40f"/><path d="M139.94,219.46a96.49,96.49,0,0,1-67.15-26.59,90.25,90.25,0,0,1-27.85-58.5v-.16l-.24-6.5,8.57-.32.24,6.41a81.69,81.69,0,0,0,25.22,52.87,88,88,0,0,0,61.22,24.21,95.52,95.52,0,0,0,13.46-1l1.22,8.49A103.86,103.86,0,0,1,139.94,219.46Z" transform="translate(-42.28 -28.62)" fill="#7fcbcd"/><path d="M179.33,189.47l-2.67-4.64L179,183.5c30.27-17.38,47.18-50.6,50.26-57.09L230.4,124l4.84,2.29-1.15,2.42c-3.2,6.74-20.78,41.26-52.44,59.43Z" transform="translate(-42.28 -28.62)" fill="#f1c40f"/><path d="M246.21,124a129.38,129.38,0,0,0-5.81-11.73l1.37-.75c-12.63-22.91-40.85-62.36-88-69.09a98.7,98.7,0,0,0-13.82-1v9.15a88,88,0,0,1,12.53.9,86.26,86.26,0,0,1,14.57,3.39l-3.35,10.18c43.5,14.31,65.38,65.46,65.59,66,1.21,2.9,30.25,71.12,92.63,80L324.53,193C272.55,185.55,246.47,124.64,246.21,124Z" transform="translate(-42.28 -28.62)" fill="#00979d"/><path d="M417.93,127.55h-7.35a70.44,70.44,0,0,0-24.51-53.13c-16.74-14.51-39.45-21-62.32-17.71l-1-7.28c25-3.56,49.82,3.52,68.17,19.44A77.81,77.81,0,0,1,417.93,127.55Z" transform="translate(-42.28 -28.62)" fill="#f1c40f"/><rect x="88.39" y="68.09" width="19.89" height="61.7" fill="#f1c40f"/><rect x="67.48" y="89" width="61.7" height="19.89" fill="#00979d"/><path d="M436.17,136.54l-7.86-.73c.25-2.71.38-5.49.38-8.26a87.65,87.65,0,0,0-27.45-63.8l5.46-5.7a95.46,95.46,0,0,1,29.89,69.5C436.59,130.56,436.45,133.59,436.17,136.54Z" transform="translate(-42.28 -28.62)" fill="#7fcbcd"/><path d="M409.13,141.14l-5.13-1a64.82,64.82,0,0,0-19.06-59.73l3.62-3.78a70.06,70.06,0,0,1,20.57,64.53Z" transform="translate(-42.28 -28.62)" fill="#00979d"/><path d="M400.15,142.4l-11.88-3a48.27,48.27,0,0,0,1.48-11.82c0-28-24.32-50.85-54.21-50.85a64.8,64.8,0,0,0-8.85.63q-1.17.18-2.34.39l-2.21-12.06c.94-.17,1.88-.32,2.83-.46a75.57,75.57,0,0,1,10.57-.75c36.65,0,66.46,28.31,66.46,63.1A60.18,60.18,0,0,1,400.15,142.4Z" transform="translate(-42.28 -28.62)" fill="#f26727"/><path d="M302,79.47l-1.42-2.55c-28.13,15.6-44.6,46.13-47.62,52.09l-3,6.07-3.15-1.55-1.3,2.88,11.18,5,5-11.16c2.95-5.46,25.84-45.77,62.68-52.55l-1.11-6A70.35,70.35,0,0,0,302,79.47Z" transform="translate(-42.28 -28.62)" fill="#00979d"/><path d="M335.57,214.56a100,100,0,0,1-14-1c-20.81-3-40.11-12.64-57.38-28.73l7.52-8.07c15.59,14.53,32.88,23.23,51.41,25.88a89.24,89.24,0,0,0,14.82.86l.25,11Q336.89,214.56,335.57,214.56Z" transform="translate(-42.28 -28.62)" fill="#7fcbcd"/></g><g id="TITLE"><path d="M362,192.43h7.88c9,0,12,4.25,12,11.8,0,5.7-1.74,12.25-11.95,12.25H362Zm5.95,4.84v14.29h2.26c4.92,0,5.29-3,5.29-7.07,0-4.7-.48-7.22-5.81-7.22Z" transform="translate(-42.28 -28.62)" fill="#9e846d"/><path d="M383.85,216.48l7.55-24h6.7l7.66,24h-6.33l-1.33-4.92h-6.92L390,216.48Zm10.66-18.36-2.18,8.81h4.55Z" transform="translate(-42.28 -28.62)" fill="#9e846d"/><path d="M417.78,202.27l4.26-9.84h6L420.48,207v9.51h-6v-9.33l-7.77-14.72h6.44Z" transform="translate(-42.28 -28.62)" fill="#9e846d"/><path d="M450.65,199.38a4,4,0,0,0-4.29-4.22,7.33,7.33,0,0,0-5.1,2.55l-1.56-1.92a10.25,10.25,0,0,1,7.25-3.15c3.74,0,6.74,2.22,6.74,6.4,0,4.93-6.51,11.81-11.36,15.43h12.51V217H438.55V215C443,211.74,450.65,204.11,450.65,199.38Z" transform="translate(-42.28 -28.62)" fill="#f26727"/><path d="M478.44,204.37c0,5.89-1.59,13-9.36,13-6.11,0-9-4.26-9-11.92,0-6.84,2-12.84,9.29-12.84C475.89,192.64,478.44,197.19,478.44,204.37ZM464.82,213,472,195.75a6.54,6.54,0,0,0-2.85-.59c-4.93,0-6.07,4.81-6.07,9.51C463.05,207.85,463.31,211,464.82,213Zm10.62-8.18c0-2.85-.25-5.88-1.85-7.77l-7.17,17.28a6.13,6.13,0,0,0,2.92.63C474.48,214.92,475.44,209.59,475.44,204.78Z" transform="translate(-42.28 -28.62)" fill="#f26727"/><path d="M495.79,199.38a4,4,0,0,0-4.29-4.22,7.37,7.37,0,0,0-5.11,2.55l-1.55-1.92a10.23,10.23,0,0,1,7.25-3.15c3.74,0,6.74,2.22,6.74,6.4,0,4.93-6.51,11.81-11.36,15.43H500V217H483.69V215C488.17,211.74,495.79,204.11,495.79,199.38Z" transform="translate(-42.28 -28.62)" fill="#f26727"/><path d="M523.58,204.37c0,5.89-1.59,13-9.36,13-6.11,0-9-4.26-9-11.92,0-6.84,2-12.84,9.29-12.84C521,192.64,523.58,197.19,523.58,204.37ZM510,213l7.14-17.21a6.46,6.46,0,0,0-2.84-.59c-4.93,0-6.07,4.81-6.07,9.51C508.19,207.85,508.45,211,510,213Zm10.62-8.18c0-2.85-.26-5.88-1.85-7.77l-7.17,17.28a6.13,6.13,0,0,0,2.92.63C519.62,214.92,520.58,209.59,520.58,204.78Z" transform="translate(-42.28 -28.62)" fill="#f26727"/></g></svg>